<?xml version="1.0" encoding="UTF-8" standalone="no"?>
<!-- Created with Inkscape (http://www.inkscape.org/) -->

<svg
   width="48"
   height="48"
   viewBox="0 0 12.7 12.7"
   version="1.1"
   id="svg5"
   inkscape:version="1.1 (c68e22c387, 2021-05-23)"
   sodipodi:docname="favicon.svg"
   xmlns:inkscape="http://www.inkscape.org/namespaces/inkscape"
   xmlns:sodipodi="http://sodipodi.sourceforge.net/DTD/sodipodi-0.dtd"
   xmlns="http://www.w3.org/2000/svg"
   xmlns:svg="http://www.w3.org/2000/svg">
  <sodipodi:namedview
     id="namedview7"
     pagecolor="#ffffff"
     bordercolor="#666666"
     borderopacity="1.0"
     inkscape:pageshadow="2"
     inkscape:pageopacity="0.0"
     inkscape:pagecheckerboard="true"
     inkscape:document-units="px"
     showgrid="false"
     units="px"
     inkscape:zoom="2.2273157"
     inkscape:cx="-3.1427966"
     inkscape:cy="79.692341"
     inkscape:window-width="1366"
     inkscape:window-height="705"
     inkscape:window-x="-8"
     inkscape:window-y="-8"
     inkscape:window-maximized="1"
     inkscape:current-layer="text2079" />
  <defs
     id="defs2" />
  <g
     inkscape:label="Camada 1"
     inkscape:groupmode="layer"
     id="layer1">
    <g
       aria-label="NS"
       transform="scale(0.7590569,1.3174243)"
       id="text2079"
       style="font-size:12.2479px;line-height:1.25;stroke-width:0.306195">
      <path
         d="M 3.0274175,1.0896482 6.004137,5.333819 5.9875398,1.0139493 8.5353843,1.0896482 7.8071634,9.4908859 6.5449257,9.4980391 v 0 0 L 3.079817,3.637308 3.5154094,9.543298 0.89566811,9.515607 1.099757,1.1144999 Z"
         style="font-weight:bold;font-family:serif;-inkscape-font-specification:'serif, Bold'"
         id="path5329"
         sodipodi:nodetypes="ccccccccccccc" />
      <path
         d="m 14.575609,0.9042552 0.06578,2.7031498 h -0.245197 q -0.173432,-1.0166714 -0.8552,-1.6326546 -0.675787,-0.6219637 -1.465203,-0.6219637 -0.610003,0 -0.968828,0.3289231 -0.352845,0.3229427 -0.352845,0.7475525 0,0.2691189 0.125589,0.4784336 0.173432,0.2810797 0.556179,0.556179 0.28108,0.1973539 1.297751,0.6997092 1.42334,0.6997091 1.919715,1.3216728 0.490395,0.6219636 0.490395,1.4233399 0,1.0166714 -0.795396,1.752263 -0.789416,0.7296113 -2.009421,0.7296113 -0.382747,0 -0.723631,-0.077745 -0.340884,-0.077745 -0.8552,-0.2930406 -0.28706,-0.1196084 -0.472453,-0.1196084 -0.155491,0 -0.3289236,0.1196084 Q 9.7852923,9.1392934 9.6776447,9.3844907 H 9.4563692 V 6.3225156 h 0.2212755 q 0.2631385,1.2917708 1.0106913,1.9735386 0.753533,0.6757875 1.620693,0.6757875 0.669808,0 1.064515,-0.3648056 0.400688,-0.3648057 0.400688,-0.8492197 0,-0.2870601 -0.155491,-0.556179 Q 13.469231,6.9325185 13.158249,6.6933017 12.847267,6.4481045 12.057852,6.0593772 10.951474,5.515159 10.46706,5.1324121 9.9826461,4.7496652 9.7195076,4.277212 9.4623496,3.8047589 9.4623496,3.236619 q 0,-0.9688281 0.7116704,-1.6505959 0.71167,-0.6817679 1.794126,-0.6817679 0.394707,0 0.765493,0.0956867 0.28108,0.0717651 0.681768,0.26911889 0.406669,0.1913734 0.56814,0.1913734 0.155491,0 0.245197,-0.095687 0.08971,-0.095687 0.167452,-0.4604923 z"
         style="font-weight:bold;font-family:serif;-inkscape-font-specification:'serif, Bold'"
         id="path5331" />
    </g>
  </g>
</svg>
