<?xml version="1.0" encoding="UTF-8" standalone="no"?>
<svg
   viewBox="-147 -70 400 400"
   version="1.1"
   id="svg27"
   width="400"
   height="400"
   sodipodi:docname="Android_robot2p.svg"
   inkscape:version="1.2.1 (9c6d41e410, 2022-07-14, custom)"
   xmlns:inkscape="http://www.inkscape.org/namespaces/inkscape"
   xmlns:sodipodi="http://sodipodi.sourceforge.net/DTD/sodipodi-0.dtd"
   xmlns:xlink="http://www.w3.org/1999/xlink"
   xmlns="http://www.w3.org/2000/svg"
   xmlns:svg="http://www.w3.org/2000/svg">
  <sodipodi:namedview
     id="namedview108"
     pagecolor="#ffffff"
     bordercolor="#000000"
     borderopacity="0.25"
     inkscape:showpageshadow="2"
     inkscape:pageopacity="0.0"
     inkscape:pagecheckerboard="0"
     inkscape:deskcolor="#d1d1d1"
     showgrid="false"
     inkscape:zoom="1.3425"
     inkscape:cx="198.51024"
     inkscape:cy="245.43762"
     inkscape:window-width="1360"
     inkscape:window-height="696"
     inkscape:window-x="0"
     inkscape:window-y="0"
     inkscape:window-maximized="1"
     inkscape:current-layer="svg27" />
  <defs
     id="defs31" />
  <g
     id="layer1">
    <path
       style="fill:#aa0000;stroke:#000000;stroke-width:1px;stroke-linecap:butt;stroke-linejoin:miter;stroke-opacity:1"
       d="m -118.67287,210.53605 11.10636,-39.29443 14.095642,32.16864 14.966555,31.83574 49.074443,-86.48893 124.80239,5.16461 40.70215,61.73773 35.85514,-53.88797 15.8406,77.67554 25.60189,-77.37559 11.33979,124.14812 -350.36096,-5.74366 z"
       id="path416" />
    <path
       style="fill:#550000;stroke:#000000;stroke-width:1px;stroke-linecap:butt;stroke-linejoin:miter;stroke-opacity:1"
       d="m -148.36992,327.9185 2.6129,-121.4751 33.27336,72.72859 12.21782,-83.4117 31.067302,86.72249 15.646425,-64.5094 51.293393,59.84582 37.87516,-71.39581 42.60415,80.00493 30.4802,-80.03915 32.00969,49.35372 26.79399,-46.72132 38.98645,79.27499 26.09394,-64.19235 17.22078,41.22138 3.98959,61.64556 -3.24621,4.14545 z"
       id="path414" />
  </g>
  <g
     id="g238"
     transform="translate(46.12074,5.7830718)"
     style="fill:#ff0000">
    <g
       fill="#a4c639"
       id="g17"
       transform="translate(-2.4435642,9.6889126)"
       style="fill:#ff0000">
      <g
         id="use2"
         style="fill:#ff0000;stroke:#ffffff;stroke-width:14.4">
        <ellipse
           cy="41"
           rx="91"
           ry="84"
           id="ellipse240"
           cx="0"
           style="fill:#ff0000" />
        <rect
           rx="22"
           height="182"
           width="182"
           y="20"
           x="-91"
           id="rect242"
           style="fill:#ff0000" />
      </g>
      <use
         xlink:href="#a"
         transform="scale(-1,1)"
         id="use4"
         style="fill:#ff0000" />
      <g
         id="a"
         stroke="#ffffff"
         stroke-width="7.2"
         style="fill:#ff0000">
        <rect
           rx="6.5"
           transform="rotate(29)"
           height="86"
           width="13"
           y="-86"
           x="14"
           id="rect6"
           style="fill:#ff0000" />
        <rect
           id="c"
           rx="24"
           height="133"
           width="48"
           y="41"
           x="-143"
           style="fill:#ff0000" />
        <use
           y="97"
           x="85"
           xlink:href="#c"
           id="use9"
           style="fill:#ff0000" />
      </g>
      <ellipse
         cy="41"
         rx="91"
         ry="84"
         id="ellipse12"
         cx="0"
         style="fill:#ff0000" />
      <rect
         rx="22"
         height="182"
         width="182"
         y="20"
         x="-91"
         id="rect14"
         style="fill:#ff0000" />
    </g>
    <g
       stroke="#ffffff"
       stroke-width="7.2"
       fill="#ffffff"
       id="g25"
       style="fill:#ff0000">
      <path
         d="M -95,44.5 H 95"
         id="path19"
         style="fill:#ff0000" />
      <circle
         cx="-42"
         r="4"
         id="circle21"
         cy="0"
         style="fill:#ff0000" />
      <circle
         cx="42"
         r="4"
         id="circle23"
         cy="0"
         style="fill:#ff0000" />
    </g>
  </g>
</svg>
